<?xml version="1.0" encoding="utf-8" standalone="no"?>
<!DOCTYPE svg PUBLIC "-//W3C//DTD SVG 1.1//EN"
  "http://www.w3.org/Graphics/SVG/1.1/DTD/svg11.dtd">
<svg xmlns:xlink="http://www.w3.org/1999/xlink" width="452.613939pt" height="234.479471pt" viewBox="0 0 452.613939 234.479471" xmlns="http://www.w3.org/2000/svg" version="1.1">
 <metadata>
  <rdf:RDF xmlns:dc="http://purl.org/dc/elements/1.1/" xmlns:cc="http://creativecommons.org/ns#" xmlns:rdf="http://www.w3.org/1999/02/22-rdf-syntax-ns#">
   <cc:Work>
    <dc:type rdf:resource="http://purl.org/dc/dcmitype/StillImage"/>
    <dc:date>2023-05-06T17:06:03.084863</dc:date>
    <dc:format>image/svg+xml</dc:format>
    <dc:creator>
     <cc:Agent>
      <dc:title>Matplotlib v3.5.1, https://matplotlib.org/</dc:title>
     </cc:Agent>
    </dc:creator>
   </cc:Work>
  </rdf:RDF>
 </metadata>
 <defs>
  <style type="text/css">*{stroke-linejoin: round; stroke-linecap: butt}</style>
 </defs>
 <g id="figure_1">
  <g id="patch_1">
   <path d="M 0 234.479471 
L 452.613939 234.479471 
L 452.613939 0 
L 0 0 
z
" style="fill: #ffffff"/>
  </g>
  <g id="axes_1">
   <g id="patch_2">
    <path d="M 38.482813 210.601346 
L 445.285505 210.601346 
L 445.285505 7.2 
L 38.482813 7.2 
z
" style="fill: #ffffff"/>
   </g>
   <g id="matplotlib.axis_1">
    <g id="xtick_1">
     <g id="line2d_1">
      <defs>
       <path id="me9a1302cd7" d="M 0 0 
L 0 3.5 
" style="stroke: #000000; stroke-width: 0.8"/>
      </defs>
      <g>
       <use xlink:href="#me9a1302cd7" x="46.305941" y="210.601346" style="stroke: #000000; stroke-width: 0.8"/>
      </g>
     </g>
     <g id="text_1">
      <!-- 0.0 -->
      <g transform="translate(38.354379 225.199784)scale(0.1 -0.1)">
       <defs>
        <path id="DejaVuSans-30" d="M 2034 4250 
Q 1547 4250 1301 3770 
Q 1056 3291 1056 2328 
Q 1056 1369 1301 889 
Q 1547 409 2034 409 
Q 2525 409 2770 889 
Q 3016 1369 3016 2328 
Q 3016 3291 2770 3770 
Q 2525 4250 2034 4250 
z
M 2034 4750 
Q 2819 4750 3233 4129 
Q 3647 3509 3647 2328 
Q 3647 1150 3233 529 
Q 2819 -91 2034 -91 
Q 1250 -91 836 529 
Q 422 1150 422 2328 
Q 422 3509 836 4129 
Q 1250 4750 2034 4750 
z
" transform="scale(0.015625)"/>
        <path id="DejaVuSans-2e" d="M 684 794 
L 1344 794 
L 1344 0 
L 684 0 
L 684 794 
z
" transform="scale(0.015625)"/>
       </defs>
       <use xlink:href="#DejaVuSans-30"/>
       <use xlink:href="#DejaVuSans-2e" x="63.623047"/>
       <use xlink:href="#DejaVuSans-30" x="95.410156"/>
      </g>
     </g>
    </g>
    <g id="xtick_2">
     <g id="line2d_2">
      <g>
       <use xlink:href="#me9a1302cd7" x="144.09505" y="210.601346" style="stroke: #000000; stroke-width: 0.8"/>
      </g>
     </g>
     <g id="text_2">
      <!-- 0.5 -->
      <g transform="translate(136.143487 225.199784)scale(0.1 -0.1)">
       <defs>
        <path id="DejaVuSans-35" d="M 691 4666 
L 3169 4666 
L 3169 4134 
L 1269 4134 
L 1269 2991 
Q 1406 3038 1543 3061 
Q 1681 3084 1819 3084 
Q 2600 3084 3056 2656 
Q 3513 2228 3513 1497 
Q 3513 744 3044 326 
Q 2575 -91 1722 -91 
Q 1428 -91 1123 -41 
Q 819 9 494 109 
L 494 744 
Q 775 591 1075 516 
Q 1375 441 1709 441 
Q 2250 441 2565 725 
Q 2881 1009 2881 1497 
Q 2881 1984 2565 2268 
Q 2250 2553 1709 2553 
Q 1456 2553 1204 2497 
Q 953 2441 691 2322 
L 691 4666 
z
" transform="scale(0.015625)"/>
       </defs>
       <use xlink:href="#DejaVuSans-30"/>
       <use xlink:href="#DejaVuSans-2e" x="63.623047"/>
       <use xlink:href="#DejaVuSans-35" x="95.410156"/>
      </g>
     </g>
    </g>
    <g id="xtick_3">
     <g id="line2d_3">
      <g>
       <use xlink:href="#me9a1302cd7" x="241.884159" y="210.601346" style="stroke: #000000; stroke-width: 0.8"/>
      </g>
     </g>
     <g id="text_3">
      <!-- 1.0 -->
      <g transform="translate(233.932596 225.199784)scale(0.1 -0.1)">
       <defs>
        <path id="DejaVuSans-31" d="M 794 531 
L 1825 531 
L 1825 4091 
L 703 3866 
L 703 4441 
L 1819 4666 
L 2450 4666 
L 2450 531 
L 3481 531 
L 3481 0 
L 794 0 
L 794 531 
z
" transform="scale(0.015625)"/>
       </defs>
       <use xlink:href="#DejaVuSans-31"/>
       <use xlink:href="#DejaVuSans-2e" x="63.623047"/>
       <use xlink:href="#DejaVuSans-30" x="95.410156"/>
      </g>
     </g>
    </g>
    <g id="xtick_4">
     <g id="line2d_4">
      <g>
       <use xlink:href="#me9a1302cd7" x="339.673267" y="210.601346" style="stroke: #000000; stroke-width: 0.8"/>
      </g>
     </g>
     <g id="text_4">
      <!-- 1.5 -->
      <g transform="translate(331.721705 225.199784)scale(0.1 -0.1)">
       <use xlink:href="#DejaVuSans-31"/>
       <use xlink:href="#DejaVuSans-2e" x="63.623047"/>
       <use xlink:href="#DejaVuSans-35" x="95.410156"/>
      </g>
     </g>
    </g>
    <g id="xtick_5">
     <g id="line2d_5">
      <g>
       <use xlink:href="#me9a1302cd7" x="437.462376" y="210.601346" style="stroke: #000000; stroke-width: 0.8"/>
      </g>
     </g>
     <g id="text_5">
      <!-- 2.0 -->
      <g transform="translate(429.510814 225.199784)scale(0.1 -0.1)">
       <defs>
        <path id="DejaVuSans-32" d="M 1228 531 
L 3431 531 
L 3431 0 
L 469 0 
L 469 531 
Q 828 903 1448 1529 
Q 2069 2156 2228 2338 
Q 2531 2678 2651 2914 
Q 2772 3150 2772 3378 
Q 2772 3750 2511 3984 
Q 2250 4219 1831 4219 
Q 1534 4219 1204 4116 
Q 875 4013 500 3803 
L 500 4441 
Q 881 4594 1212 4672 
Q 1544 4750 1819 4750 
Q 2544 4750 2975 4387 
Q 3406 4025 3406 3419 
Q 3406 3131 3298 2873 
Q 3191 2616 2906 2266 
Q 2828 2175 2409 1742 
Q 1991 1309 1228 531 
z
" transform="scale(0.015625)"/>
       </defs>
       <use xlink:href="#DejaVuSans-32"/>
       <use xlink:href="#DejaVuSans-2e" x="63.623047"/>
       <use xlink:href="#DejaVuSans-30" x="95.410156"/>
      </g>
     </g>
    </g>
    <g id="xtick_6">
     <g id="line2d_6">
      <defs>
       <path id="m00a67a03d4" d="M 0 0 
L 0 2 
" style="stroke: #000000; stroke-width: 0.6"/>
      </defs>
      <g>
       <use xlink:href="#m00a67a03d4" x="65.863763" y="210.601346" style="stroke: #000000; stroke-width: 0.6"/>
      </g>
     </g>
    </g>
    <g id="xtick_7">
     <g id="line2d_7">
      <g>
       <use xlink:href="#m00a67a03d4" x="85.421585" y="210.601346" style="stroke: #000000; stroke-width: 0.6"/>
      </g>
     </g>
    </g>
    <g id="xtick_8">
     <g id="line2d_8">
      <g>
       <use xlink:href="#m00a67a03d4" x="104.979406" y="210.601346" style="stroke: #000000; stroke-width: 0.6"/>
      </g>
     </g>
    </g>
    <g id="xtick_9">
     <g id="line2d_9">
      <g>
       <use xlink:href="#m00a67a03d4" x="124.537228" y="210.601346" style="stroke: #000000; stroke-width: 0.6"/>
      </g>
     </g>
    </g>
    <g id="xtick_10">
     <g id="line2d_10">
      <g>
       <use xlink:href="#m00a67a03d4" x="163.652872" y="210.601346" style="stroke: #000000; stroke-width: 0.6"/>
      </g>
     </g>
    </g>
    <g id="xtick_11">
     <g id="line2d_11">
      <g>
       <use xlink:href="#m00a67a03d4" x="183.210693" y="210.601346" style="stroke: #000000; stroke-width: 0.6"/>
      </g>
     </g>
    </g>
    <g id="xtick_12">
     <g id="line2d_12">
      <g>
       <use xlink:href="#m00a67a03d4" x="202.768515" y="210.601346" style="stroke: #000000; stroke-width: 0.6"/>
      </g>
     </g>
    </g>
    <g id="xtick_13">
     <g id="line2d_13">
      <g>
       <use xlink:href="#m00a67a03d4" x="222.326337" y="210.601346" style="stroke: #000000; stroke-width: 0.6"/>
      </g>
     </g>
    </g>
    <g id="xtick_14">
     <g id="line2d_14">
      <g>
       <use xlink:href="#m00a67a03d4" x="261.44198" y="210.601346" style="stroke: #000000; stroke-width: 0.6"/>
      </g>
     </g>
    </g>
    <g id="xtick_15">
     <g id="line2d_15">
      <g>
       <use xlink:href="#m00a67a03d4" x="280.999802" y="210.601346" style="stroke: #000000; stroke-width: 0.6"/>
      </g>
     </g>
    </g>
    <g id="xtick_16">
     <g id="line2d_16">
      <g>
       <use xlink:href="#m00a67a03d4" x="300.557624" y="210.601346" style="stroke: #000000; stroke-width: 0.6"/>
      </g>
     </g>
    </g>
    <g id="xtick_17">
     <g id="line2d_17">
      <g>
       <use xlink:href="#m00a67a03d4" x="320.115446" y="210.601346" style="stroke: #000000; stroke-width: 0.6"/>
      </g>
     </g>
    </g>
    <g id="xtick_18">
     <g id="line2d_18">
      <g>
       <use xlink:href="#m00a67a03d4" x="359.231089" y="210.601346" style="stroke: #000000; stroke-width: 0.6"/>
      </g>
     </g>
    </g>
    <g id="xtick_19">
     <g id="line2d_19">
      <g>
       <use xlink:href="#m00a67a03d4" x="378.788911" y="210.601346" style="stroke: #000000; stroke-width: 0.6"/>
      </g>
     </g>
    </g>
    <g id="xtick_20">
     <g id="line2d_20">
      <g>
       <use xlink:href="#m00a67a03d4" x="398.346733" y="210.601346" style="stroke: #000000; stroke-width: 0.6"/>
      </g>
     </g>
    </g>
    <g id="xtick_21">
     <g id="line2d_21">
      <g>
       <use xlink:href="#m00a67a03d4" x="417.904554" y="210.601346" style="stroke: #000000; stroke-width: 0.6"/>
      </g>
     </g>
    </g>
   </g>
   <g id="matplotlib.axis_2">
    <g id="ytick_1">
     <g id="line2d_22">
      <defs>
       <path id="m506cb47453" d="M 0 0 
L -3.5 0 
" style="stroke: #000000; stroke-width: 0.8"/>
      </defs>
      <g>
       <use xlink:href="#m506cb47453" x="38.482813" y="187.13196" style="stroke: #000000; stroke-width: 0.8"/>
      </g>
     </g>
     <g id="text_6">
      <!-- −0.4 -->
      <g transform="translate(7.2 190.931179)scale(0.1 -0.1)">
       <defs>
        <path id="DejaVuSans-2212" d="M 678 2272 
L 4684 2272 
L 4684 1741 
L 678 1741 
L 678 2272 
z
" transform="scale(0.015625)"/>
        <path id="DejaVuSans-34" d="M 2419 4116 
L 825 1625 
L 2419 1625 
L 2419 4116 
z
M 2253 4666 
L 3047 4666 
L 3047 1625 
L 3713 1625 
L 3713 1100 
L 3047 1100 
L 3047 0 
L 2419 0 
L 2419 1100 
L 313 1100 
L 313 1709 
L 2253 4666 
z
" transform="scale(0.015625)"/>
       </defs>
       <use xlink:href="#DejaVuSans-2212"/>
       <use xlink:href="#DejaVuSans-30" x="83.789062"/>
       <use xlink:href="#DejaVuSans-2e" x="147.412109"/>
       <use xlink:href="#DejaVuSans-34" x="179.199219"/>
      </g>
     </g>
    </g>
    <g id="ytick_2">
     <g id="line2d_23">
      <g>
       <use xlink:href="#m506cb47453" x="38.482813" y="148.016317" style="stroke: #000000; stroke-width: 0.8"/>
      </g>
     </g>
     <g id="text_7">
      <!-- −0.2 -->
      <g transform="translate(7.2 151.815535)scale(0.1 -0.1)">
       <use xlink:href="#DejaVuSans-2212"/>
       <use xlink:href="#DejaVuSans-30" x="83.789062"/>
       <use xlink:href="#DejaVuSans-2e" x="147.412109"/>
       <use xlink:href="#DejaVuSans-32" x="179.199219"/>
      </g>
     </g>
    </g>
    <g id="ytick_3">
     <g id="line2d_24">
      <g>
       <use xlink:href="#m506cb47453" x="38.482813" y="108.900673" style="stroke: #000000; stroke-width: 0.8"/>
      </g>
     </g>
     <g id="text_8">
      <!-- 0.0 -->
      <g transform="translate(15.579688 112.699892)scale(0.1 -0.1)">
       <use xlink:href="#DejaVuSans-30"/>
       <use xlink:href="#DejaVuSans-2e" x="63.623047"/>
       <use xlink:href="#DejaVuSans-30" x="95.410156"/>
      </g>
     </g>
    </g>
    <g id="ytick_4">
     <g id="line2d_25">
      <g>
       <use xlink:href="#m506cb47453" x="38.482813" y="69.78503" style="stroke: #000000; stroke-width: 0.8"/>
      </g>
     </g>
     <g id="text_9">
      <!-- 0.2 -->
      <g transform="translate(15.579688 73.584248)scale(0.1 -0.1)">
       <use xlink:href="#DejaVuSans-30"/>
       <use xlink:href="#DejaVuSans-2e" x="63.623047"/>
       <use xlink:href="#DejaVuSans-32" x="95.410156"/>
      </g>
     </g>
    </g>
    <g id="ytick_5">
     <g id="line2d_26">
      <g>
       <use xlink:href="#m506cb47453" x="38.482813" y="30.669386" style="stroke: #000000; stroke-width: 0.8"/>
      </g>
     </g>
     <g id="text_10">
      <!-- 0.4 -->
      <g transform="translate(15.579688 34.468605)scale(0.1 -0.1)">
       <use xlink:href="#DejaVuSans-30"/>
       <use xlink:href="#DejaVuSans-2e" x="63.623047"/>
       <use xlink:href="#DejaVuSans-34" x="95.410156"/>
      </g>
     </g>
    </g>
    <g id="ytick_6">
     <g id="line2d_27">
      <defs>
       <path id="m7cb74e770f" d="M 0 0 
L -2 0 
" style="stroke: #000000; stroke-width: 0.6"/>
      </defs>
      <g>
       <use xlink:href="#m7cb74e770f" x="38.482813" y="206.689782" style="stroke: #000000; stroke-width: 0.6"/>
      </g>
     </g>
    </g>
    <g id="ytick_7">
     <g id="line2d_28">
      <g>
       <use xlink:href="#m7cb74e770f" x="38.482813" y="196.910871" style="stroke: #000000; stroke-width: 0.6"/>
      </g>
     </g>
    </g>
    <g id="ytick_8">
     <g id="line2d_29">
      <g>
       <use xlink:href="#m7cb74e770f" x="38.482813" y="177.353049" style="stroke: #000000; stroke-width: 0.6"/>
      </g>
     </g>
    </g>
    <g id="ytick_9">
     <g id="line2d_30">
      <g>
       <use xlink:href="#m7cb74e770f" x="38.482813" y="167.574138" style="stroke: #000000; stroke-width: 0.6"/>
      </g>
     </g>
    </g>
    <g id="ytick_10">
     <g id="line2d_31">
      <g>
       <use xlink:href="#m7cb74e770f" x="38.482813" y="157.795227" style="stroke: #000000; stroke-width: 0.6"/>
      </g>
     </g>
    </g>
    <g id="ytick_11">
     <g id="line2d_32">
      <g>
       <use xlink:href="#m7cb74e770f" x="38.482813" y="138.237406" style="stroke: #000000; stroke-width: 0.6"/>
      </g>
     </g>
    </g>
    <g id="ytick_12">
     <g id="line2d_33">
      <g>
       <use xlink:href="#m7cb74e770f" x="38.482813" y="128.458495" style="stroke: #000000; stroke-width: 0.6"/>
      </g>
     </g>
    </g>
    <g id="ytick_13">
     <g id="line2d_34">
      <g>
       <use xlink:href="#m7cb74e770f" x="38.482813" y="118.679584" style="stroke: #000000; stroke-width: 0.6"/>
      </g>
     </g>
    </g>
    <g id="ytick_14">
     <g id="line2d_35">
      <g>
       <use xlink:href="#m7cb74e770f" x="38.482813" y="99.121762" style="stroke: #000000; stroke-width: 0.6"/>
      </g>
     </g>
    </g>
    <g id="ytick_15">
     <g id="line2d_36">
      <g>
       <use xlink:href="#m7cb74e770f" x="38.482813" y="89.342851" style="stroke: #000000; stroke-width: 0.6"/>
      </g>
     </g>
    </g>
    <g id="ytick_16">
     <g id="line2d_37">
      <g>
       <use xlink:href="#m7cb74e770f" x="38.482813" y="79.56394" style="stroke: #000000; stroke-width: 0.6"/>
      </g>
     </g>
    </g>
    <g id="ytick_17">
     <g id="line2d_38">
      <g>
       <use xlink:href="#m7cb74e770f" x="38.482813" y="60.006119" style="stroke: #000000; stroke-width: 0.6"/>
      </g>
     </g>
    </g>
    <g id="ytick_18">
     <g id="line2d_39">
      <g>
       <use xlink:href="#m7cb74e770f" x="38.482813" y="50.227208" style="stroke: #000000; stroke-width: 0.6"/>
      </g>
     </g>
    </g>
    <g id="ytick_19">
     <g id="line2d_40">
      <g>
       <use xlink:href="#m7cb74e770f" x="38.482813" y="40.448297" style="stroke: #000000; stroke-width: 0.6"/>
      </g>
     </g>
    </g>
    <g id="ytick_20">
     <g id="line2d_41">
      <g>
       <use xlink:href="#m7cb74e770f" x="38.482813" y="20.890475" style="stroke: #000000; stroke-width: 0.6"/>
      </g>
     </g>
    </g>
    <g id="ytick_21">
     <g id="line2d_42">
      <g>
       <use xlink:href="#m7cb74e770f" x="38.482813" y="11.111564" style="stroke: #000000; stroke-width: 0.6"/>
      </g>
     </g>
    </g>
   </g>
   <g id="line2d_43">
    <path d="M 437.462376 108.900673 
L 437.267533 104.997127 
L 436.867722 102.083602 
L 436.448294 100.001629 
L 435.849304 97.682892 
L 434.773027 94.42979 
L 433.147815 90.597745 
L 431.241814 86.960626 
L 429.602619 84.274501 
L 427.763264 81.58904 
L 425.977404 79.228233 
L 424.136461 76.991281 
L 421.242405 73.788434 
L 418.68188 71.206528 
L 414.496161 67.377242 
L 410.194726 63.836277 
L 405.347594 60.217728 
L 399.830981 56.479664 
L 393.362761 52.509765 
L 387.035564 48.978077 
L 383.223629 46.993275 
L 378.275059 44.557754 
L 368.727317 40.252904 
L 360.325355 36.835757 
L 350.16117 33.100105 
L 346.06121 31.704166 
L 335.286949 28.310748 
L 325.851893 25.640363 
L 315.458472 22.996766 
L 304.352128 20.493169 
L 291.995261 18.074619 
L 286.801862 17.168987 
L 278.38823 15.837418 
L 268.806635 14.522077 
L 259.188251 13.414802 
L 247.42052 12.350178 
L 234.900722 11.571875 
L 223.993995 11.198858 
L 211.039766 11.139301 
L 199.615954 11.450137 
L 187.153866 12.204125 
L 176.29654 13.241493 
L 166.15518 14.558698 
L 164.061529 14.875332 
L 156.802098 16.099085 
L 150.841696 17.257653 
L 140.529367 19.618987 
L 132.567367 21.783146 
L 121.648336 25.301956 
L 114.601798 27.958632 
L 107.669151 30.912791 
L 101.92918 33.649005 
L 97.357503 36.041261 
L 93.577897 38.178568 
L 89.129654 40.901058 
L 83.570096 44.664465 
L 79.568895 47.662491 
L 76.558562 50.104721 
L 71.972733 54.188979 
L 66.952519 59.283643 
L 64.428116 62.157539 
L 61.139353 66.306151 
L 59.543771 68.522196 
L 55.975898 74.121976 
L 53.739879 78.259414 
L 51.65649 82.788506 
L 49.500358 88.630961 
L 48.027537 93.973235 
L 47.072631 98.918738 
L 46.6835 101.890038 
L 46.313419 107.913257 
L 46.318312 110.170662 
L 46.620159 115.297124 
L 47.52056 121.452581 
L 48.213244 124.606368 
L 49.376067 128.777425 
L 51.195384 133.887058 
L 52.380813 136.680928 
L 54.978734 141.908442 
L 56.552597 144.65679 
L 59.572684 149.320682 
L 60.599172 150.761661 
L 63.170635 154.117171 
L 65.663005 157.079546 
L 70.505725 162.198587 
L 73.235664 164.78549 
L 78.310175 169.138582 
L 84.743714 173.967946 
L 91.743922 178.528881 
L 95.192256 180.554367 
L 100.794265 183.577025 
L 107.327171 186.733272 
L 114.942709 189.978917 
L 120.763517 192.183489 
L 128.443857 194.768631 
L 133.556717 196.304517 
L 139.949008 198.035114 
L 145.194536 199.309148 
L 153.753606 201.127657 
L 166.913469 203.353448 
L 176.651653 204.599708 
L 188.287913 205.684597 
L 195.081253 206.128576 
L 206.111948 206.570965 
L 217.409423 206.685976 
L 230.410795 206.417955 
L 240.340843 205.936635 
L 250.664791 205.189646 
L 264.581108 203.791945 
L 276.088028 202.299116 
L 281.181622 201.540275 
L 296.265999 198.933307 
L 306.545843 196.83899 
L 315.470656 194.801656 
L 325.204903 192.334428 
L 331.785302 190.51304 
L 338.574396 188.495685 
L 344.741622 186.533767 
L 355.382476 182.833221 
L 365.232143 179.008994 
L 369.637644 177.158424 
L 381.447589 171.69972 
L 389.612318 167.422801 
L 395.080492 164.275747 
L 398.655536 162.073612 
L 403.902022 158.598805 
L 407.494636 156.023811 
L 410.759543 153.519476 
L 415.46066 149.579065 
L 419.37608 145.91506 
L 421.675892 143.554166 
L 424.310013 140.606551 
L 427.18917 136.994581 
L 429.225606 134.102118 
L 430.63658 131.870989 
L 431.917568 129.62713 
L 433.548712 126.338687 
L 434.892139 123.048943 
L 436.113855 119.159772 
L 436.734566 116.441594 
L 437.165638 113.717541 
L 437.391231 111.259719 
L 437.462376 108.900673 
L 437.462376 108.900673 
" clip-path="url(#p8a9a0dae2b)" style="fill: none; stroke: #0000ff; stroke-linecap: square"/>
   </g>
   <g id="PathCollection_1">
    <path d="M 211.694232 205.516862 
L 203.8186 204.817521 
L 195.942967 203.952908 
L 186.95787 202.751965 
L 178.674001 201.43936 
L 171.453151 200.126754 
L 164.440435 198.695918 
L 156.564802 196.89177 
L 148.689169 194.873808 
L 139.610315 192.251121 
L 132.937903 190.110198 
L 125.06227 187.326116 
L 119.811848 185.300536 
L 114.407396 183.062883 
L 108.545318 180.437672 
L 103.125661 177.812461 
L 98.10016 175.18725 
L 93.427327 172.562039 
L 88.309317 169.448168 
L 83.058895 165.96467 
L 77.730342 162.061195 
L 72.89133 158.123379 
L 69.93284 155.49348 
L 65.901966 151.560351 
L 62.293669 147.622535 
L 59.431996 144.116177 
L 57.186503 141.059507 
L 55.443339 138.434297 
L 53.128755 134.49648 
L 51.165279 130.558664 
L 49.546998 126.620847 
L 48.261546 122.683031 
L 47.303699 118.745214 
L 46.665134 114.807398 
L 46.345852 110.869581 
L 46.345852 106.931765 
L 46.665134 102.993948 
L 47.303699 99.056132 
L 48.261546 95.118315 
L 49.546998 91.180499 
L 51.165279 87.242683 
L 52.435991 84.617472 
L 54.629894 80.679655 
L 57.186503 76.741839 
L 60.12159 72.804022 
L 63.45185 68.866206 
L 65.901966 66.240995 
L 68.545655 63.615784 
L 72.558051 59.966208 
L 76.063541 57.052756 
L 80.433684 53.712644 
L 85.033272 50.489729 
L 89.084433 47.864518 
L 93.559739 45.162292 
L 98.810161 42.231253 
L 104.060583 39.521424 
L 109.311005 37.008674 
L 114.561426 34.672257 
L 122.437059 31.470854 
L 127.756164 29.488041 
L 135.563114 26.823765 
L 144.015229 24.237619 
L 151.31438 22.231421 
L 159.190013 20.282913 
L 167.065646 18.55204 
L 174.941279 17.020633 
L 182.816912 15.680263 
L 190.692545 14.522971 
L 198.568178 13.541233 
L 209.069021 12.498341 
L 216.944654 11.911988 
L 227.445498 11.37985 
L 237.946342 11.13152 
L 248.447186 11.166995 
L 258.94803 11.486278 
L 269.448874 12.089367 
L 277.324507 12.732093 
L 287.825351 13.848438 
L 296.810448 15.049381 
L 305.094317 16.361986 
L 312.315166 17.674592 
L 319.327882 19.105428 
L 327.203515 20.909577 
L 335.079148 22.927538 
L 344.158003 25.550225 
L 350.830414 27.691148 
L 358.706047 30.47523 
L 363.956469 32.50081 
L 369.360921 34.738463 
L 375.222999 37.363674 
L 380.642657 39.988885 
L 385.668157 42.614096 
L 390.340991 45.239307 
L 395.459001 48.353178 
L 400.709422 51.836676 
L 406.037976 55.740151 
L 410.876988 59.677967 
L 413.835477 62.307866 
L 417.866352 66.240995 
L 421.474648 70.178811 
L 424.336321 73.685169 
L 426.581814 76.741839 
L 428.324978 79.36705 
L 430.639562 83.304866 
L 432.603039 87.242683 
L 434.221319 91.180499 
L 435.506771 95.118315 
L 436.464619 99.056132 
L 437.103183 102.993948 
L 437.422466 106.931765 
L 437.422466 110.869581 
L 437.103183 114.807398 
L 436.464619 118.745214 
L 435.506771 122.683031 
L 434.221319 126.620847 
L 432.603039 130.558664 
L 431.332326 133.183875 
L 429.138424 137.121691 
L 426.581814 141.059507 
L 423.646728 144.997324 
L 420.316467 148.93514 
L 417.866352 151.560351 
L 415.222663 154.185562 
L 411.210266 157.835138 
L 407.704776 160.74859 
L 403.334633 164.088702 
L 398.735045 167.311617 
L 394.683884 169.936828 
L 390.208579 172.639054 
L 384.958157 175.570093 
L 379.707735 178.279922 
L 374.457313 180.792672 
L 369.206891 183.129089 
L 361.331258 186.330492 
L 356.012153 188.313305 
L 348.205203 190.977582 
L 339.753088 193.563727 
L 332.453937 195.569925 
L 324.578304 197.518434 
L 316.702671 199.249306 
L 308.827038 200.780713 
L 300.951406 202.121083 
L 293.075773 203.278375 
L 285.20014 204.260113 
L 274.699296 205.303005 
L 266.823663 205.889359 
L 256.322819 206.421496 
L 245.821975 206.669827 
L 235.321131 206.634351 
L 224.820287 206.315068 
L 214.319443 205.711979 
L 211.694232 205.516862 
L 211.694232 205.516862 
" clip-path="url(#p8a9a0dae2b)" style="fill: none; stroke: #ff0000; stroke-width: 1.5"/>
   </g>
   <g id="patch_3">
    <path d="M 38.482813 210.601346 
L 38.482813 7.2 
" style="fill: none; stroke: #000000; stroke-width: 0.8; stroke-linejoin: miter; stroke-linecap: square"/>
   </g>
   <g id="patch_4">
    <path d="M 445.285505 210.601346 
L 445.285505 7.2 
" style="fill: none; stroke: #000000; stroke-width: 0.8; stroke-linejoin: miter; stroke-linecap: square"/>
   </g>
   <g id="patch_5">
    <path d="M 38.482813 210.601346 
L 445.285505 210.601346 
" style="fill: none; stroke: #000000; stroke-width: 0.8; stroke-linejoin: miter; stroke-linecap: square"/>
   </g>
   <g id="patch_6">
    <path d="M 38.482813 7.2 
L 445.285505 7.2 
" style="fill: none; stroke: #000000; stroke-width: 0.8; stroke-linejoin: miter; stroke-linecap: square"/>
   </g>
   <g id="legend_1">
    <g id="patch_7">
     <path d="M 196.734159 121.749892 
L 291.034159 121.749892 
L 291.034159 100.051454 
L 196.734159 100.051454 
z
" style="fill: #4c4c4c; opacity: 0.5; stroke: #4c4c4c; stroke-linejoin: miter"/>
    </g>
    <g id="patch_8">
     <path d="M 194.734159 119.749892 
L 289.034159 119.749892 
L 289.034159 98.051454 
L 194.734159 98.051454 
z
" style="fill: #ffffff; stroke: #cccccc; stroke-linejoin: miter"/>
    </g>
    <g id="line2d_44">
     <path d="M 203.734159 108.149892 
L 198.234159 108.149892 
" style="fill: none; stroke: #0000ff; stroke-linecap: square"/>
    </g>
    <g id="text_11">
     <!-- $y_0 = 0; r = 1; a = 2$ -->
     <g transform="translate(206.234159 111.649892)scale(0.1 -0.1)">
      <defs>
       <path id="Cmmi10-79" d="M 538 -916 
Q 672 -1147 1006 -1147 
Q 1309 -1147 1531 -934 
Q 1753 -722 1889 -420 
Q 2025 -119 2100 197 
Q 1816 -72 1484 -72 
Q 1231 -72 1053 15 
Q 875 103 776 276 
Q 678 450 678 697 
Q 678 906 734 1126 
Q 791 1347 892 1617 
Q 994 1888 1069 2088 
Q 1153 2322 1153 2472 
Q 1153 2663 1013 2663 
Q 759 2663 595 2402 
Q 431 2141 353 1819 
Q 341 1778 300 1778 
L 225 1778 
Q 172 1778 172 1838 
L 172 1856 
Q 275 2238 487 2533 
Q 700 2828 1025 2828 
Q 1253 2828 1411 2678 
Q 1569 2528 1569 2297 
Q 1569 2178 1516 2047 
Q 1488 1969 1388 1706 
Q 1288 1444 1234 1272 
Q 1181 1100 1147 934 
Q 1113 769 1113 603 
Q 1113 391 1203 244 
Q 1294 97 1491 97 
Q 1888 97 2203 581 
L 2688 2553 
Q 2709 2638 2787 2698 
Q 2866 2759 2956 2759 
Q 3034 2759 3092 2709 
Q 3150 2659 3150 2578 
Q 3150 2541 3144 2528 
L 2509 -19 
Q 2425 -347 2200 -647 
Q 1975 -947 1658 -1130 
Q 1341 -1313 997 -1313 
Q 831 -1313 668 -1248 
Q 506 -1184 406 -1056 
Q 306 -928 306 -756 
Q 306 -581 409 -453 
Q 513 -325 684 -325 
Q 788 -325 858 -389 
Q 928 -453 928 -556 
Q 928 -703 818 -812 
Q 709 -922 563 -922 
Q 556 -919 550 -917 
Q 544 -916 538 -916 
z
" transform="scale(0.015625)"/>
       <path id="Cmr10-30" d="M 1600 -141 
Q 816 -141 533 504 
Q 250 1150 250 2041 
Q 250 2597 351 3087 
Q 453 3578 754 3920 
Q 1056 4263 1600 4263 
Q 2022 4263 2290 4056 
Q 2559 3850 2700 3523 
Q 2841 3197 2892 2823 
Q 2944 2450 2944 2041 
Q 2944 1491 2842 1011 
Q 2741 531 2444 195 
Q 2147 -141 1600 -141 
z
M 1600 25 
Q 1956 25 2131 390 
Q 2306 756 2347 1200 
Q 2388 1644 2388 2144 
Q 2388 2625 2347 3031 
Q 2306 3438 2132 3767 
Q 1959 4097 1600 4097 
Q 1238 4097 1063 3765 
Q 888 3434 847 3029 
Q 806 2625 806 2144 
Q 806 1788 823 1472 
Q 841 1156 916 820 
Q 991 484 1158 254 
Q 1325 25 1600 25 
z
" transform="scale(0.015625)"/>
       <path id="Cmr10-3d" d="M 481 850 
Q 428 850 393 890 
Q 359 931 359 978 
Q 359 1031 393 1068 
Q 428 1106 481 1106 
L 4500 1106 
Q 4547 1106 4581 1068 
Q 4616 1031 4616 978 
Q 4616 931 4581 890 
Q 4547 850 4500 850 
L 481 850 
z
M 481 2094 
Q 428 2094 393 2131 
Q 359 2169 359 2222 
Q 359 2269 393 2309 
Q 428 2350 481 2350 
L 4500 2350 
Q 4547 2350 4581 2309 
Q 4616 2269 4616 2222 
Q 4616 2169 4581 2131 
Q 4547 2094 4500 2094 
L 481 2094 
z
" transform="scale(0.015625)"/>
       <path id="Cmr10-3b" d="M 634 -1153 
Q 634 -1125 647 -1113 
Q 1094 -628 1094 25 
L 1094 56 
Q 1000 0 891 0 
Q 744 0 641 103 
Q 538 206 538 353 
Q 538 503 641 603 
Q 744 703 891 703 
Q 1113 703 1186 498 
Q 1259 294 1259 25 
Q 1259 -200 1204 -419 
Q 1150 -638 1039 -847 
Q 928 -1056 775 -1222 
Q 756 -1241 728 -1241 
Q 697 -1241 665 -1212 
Q 634 -1184 634 -1153 
z
M 538 2406 
Q 538 2497 584 2578 
Q 631 2659 714 2709 
Q 797 2759 891 2759 
Q 981 2759 1064 2709 
Q 1147 2659 1194 2578 
Q 1241 2497 1241 2406 
Q 1241 2263 1139 2158 
Q 1038 2053 891 2053 
Q 747 2053 642 2158 
Q 538 2263 538 2406 
z
" transform="scale(0.015625)"/>
       <path id="Cmmi10-72" d="M 494 109 
Q 494 147 500 166 
L 978 2075 
Q 1025 2253 1025 2388 
Q 1025 2663 838 2663 
Q 638 2663 541 2423 
Q 444 2184 353 1819 
Q 353 1800 334 1789 
Q 316 1778 300 1778 
L 225 1778 
Q 203 1778 187 1801 
Q 172 1825 172 1844 
Q 241 2122 305 2315 
Q 369 2509 505 2668 
Q 641 2828 844 2828 
Q 1066 2828 1233 2700 
Q 1400 2572 1441 2363 
Q 1603 2575 1811 2701 
Q 2019 2828 2266 2828 
Q 2469 2828 2623 2709 
Q 2778 2591 2778 2388 
Q 2778 2225 2676 2104 
Q 2575 1984 2406 1984 
Q 2303 1984 2233 2048 
Q 2163 2113 2163 2216 
Q 2163 2356 2266 2467 
Q 2369 2578 2503 2578 
Q 2400 2663 2253 2663 
Q 1978 2663 1775 2467 
Q 1572 2272 1409 1972 
L 953 141 
Q 931 53 854 -9 
Q 778 -72 684 -72 
Q 606 -72 550 -22 
Q 494 28 494 109 
z
" transform="scale(0.015625)"/>
       <path id="Cmr10-31" d="M 594 0 
L 594 225 
Q 1394 225 1394 428 
L 1394 3788 
Q 1063 3628 556 3628 
L 556 3853 
Q 1341 3853 1741 4263 
L 1831 4263 
Q 1853 4263 1873 4245 
Q 1894 4228 1894 4206 
L 1894 428 
Q 1894 225 2694 225 
L 2694 0 
L 594 0 
z
" transform="scale(0.015625)"/>
       <path id="Cmmi10-61" d="M 1113 -72 
Q 709 -72 476 233 
Q 244 538 244 953 
Q 244 1363 456 1803 
Q 669 2244 1030 2536 
Q 1391 2828 1806 2828 
Q 1997 2828 2147 2725 
Q 2297 2622 2381 2444 
Q 2453 2700 2663 2700 
Q 2744 2700 2798 2651 
Q 2853 2603 2853 2522 
Q 2853 2503 2851 2493 
Q 2850 2484 2847 2472 
L 2400 684 
Q 2356 494 2356 372 
Q 2356 97 2541 97 
Q 2741 97 2845 351 
Q 2950 606 3022 941 
Q 3034 978 3072 978 
L 3150 978 
Q 3175 978 3190 956 
Q 3206 934 3206 916 
Q 3094 469 2961 198 
Q 2828 -72 2528 -72 
Q 2313 -72 2147 54 
Q 1981 181 1941 391 
Q 1528 -72 1113 -72 
z
M 1119 97 
Q 1350 97 1567 270 
Q 1784 444 1941 678 
Q 1947 684 1947 697 
L 2291 2088 
L 2297 2106 
Q 2259 2334 2132 2498 
Q 2006 2663 1791 2663 
Q 1575 2663 1389 2486 
Q 1203 2309 1075 2069 
Q 950 1813 836 1366 
Q 722 919 722 672 
Q 722 450 817 273 
Q 913 97 1119 97 
z
" transform="scale(0.015625)"/>
       <path id="Cmr10-32" d="M 319 0 
L 319 172 
Q 319 188 331 206 
L 1325 1306 
Q 1550 1550 1690 1715 
Q 1831 1881 1968 2097 
Q 2106 2313 2186 2536 
Q 2266 2759 2266 3009 
Q 2266 3272 2169 3511 
Q 2072 3750 1880 3894 
Q 1688 4038 1416 4038 
Q 1138 4038 916 3870 
Q 694 3703 603 3438 
Q 628 3444 672 3444 
Q 816 3444 917 3347 
Q 1019 3250 1019 3097 
Q 1019 2950 917 2848 
Q 816 2747 672 2747 
Q 522 2747 420 2851 
Q 319 2956 319 3097 
Q 319 3338 409 3548 
Q 500 3759 670 3923 
Q 841 4088 1055 4175 
Q 1269 4263 1509 4263 
Q 1875 4263 2190 4108 
Q 2506 3953 2690 3670 
Q 2875 3388 2875 3009 
Q 2875 2731 2753 2481 
Q 2631 2231 2440 2026 
Q 2250 1822 1953 1562 
Q 1656 1303 1563 1216 
L 838 519 
L 1453 519 
Q 1906 519 2211 526 
Q 2516 534 2534 550 
Q 2609 631 2688 1141 
L 2875 1141 
L 2694 0 
L 319 0 
z
" transform="scale(0.015625)"/>
      </defs>
      <use xlink:href="#Cmmi10-79" transform="translate(0 0.390625)"/>
      <use xlink:href="#Cmr10-30" transform="translate(49.023438 -16.615625)scale(0.7)"/>
      <use xlink:href="#Cmr10-3d" transform="translate(107.959375 0.390625)"/>
      <use xlink:href="#Cmr10-30" transform="translate(203.203516 0.390625)"/>
      <use xlink:href="#Cmr10-3b" transform="translate(253.203516 0.390625)"/>
      <use xlink:href="#Cmmi10-72" transform="translate(298.447656 0.390625)"/>
      <use xlink:href="#Cmr10-3d" transform="translate(361.123438 0.390625)"/>
      <use xlink:href="#Cmr10-31" transform="translate(456.367578 0.390625)"/>
      <use xlink:href="#Cmr10-3b" transform="translate(506.367578 0.390625)"/>
      <use xlink:href="#Cmmi10-61" transform="translate(551.611719 0.390625)"/>
      <use xlink:href="#Cmr10-3d" transform="translate(621.953516 0.390625)"/>
      <use xlink:href="#Cmr10-32" transform="translate(717.197656 0.390625)"/>
     </g>
    </g>
   </g>
  </g>
 </g>
 <defs>
  <clipPath id="p8a9a0dae2b">
   <rect x="38.482813" y="7.2" width="406.802692" height="203.401346"/>
  </clipPath>
 </defs>
</svg>
